<svg width="169" height="136" viewBox="0 0 169 136" fill="none" xmlns="http://www.w3.org/2000/svg">
<g id="Group 53">
<g id="Union">
<path d="M148.795 11.9265C148.795 18.5132 143.454 23.8529 136.865 23.8529C130.276 23.8529 124.935 18.5132 124.935 11.9265C124.935 5.33965 130.276 0 136.865 0C143.454 0 148.795 5.33965 148.795 11.9265Z" fill="#E00501"/>
<path d="M73.75 93.2956L83.5636 75.5983L92.9924 93.2956L83.5636 109.646H42V102.144C42 97.2573 45.963 93.2956 50.8515 93.2956H73.75Z" fill="#E00501"/>
<path d="M88.7591 22.5064H115.698L138.212 35.7794L147.448 51.3607H169V57.6293C169 59.756 168.074 61.7772 166.462 63.1658L165.477 64.0146C164.15 65.1585 162.456 65.7878 160.703 65.7878H138.212L128.976 51.3607L115.698 74.8289L150.912 136H140.293C135.075 136 130.252 133.221 127.637 128.707L90.2985 64.2489L106.27 36.9335H97.6106L84.9106 58.0934L79.4183 54.6515C75.3154 52.0804 74.0408 46.6906 76.5577 42.555L88.7591 22.5064Z" fill="#E00501"/>
</g>
<path id="Vector 14" d="M2.5 21H63.5M25 49.5H54" stroke="white" stroke-width="5" stroke-linecap="round"/>
</g>
</svg>
