<svg width="176" height="203" viewBox="0 0 176 203" fill="none" xmlns="http://www.w3.org/2000/svg">
<g id="Group 38">
<g id="Group 37">
<ellipse id="Ellipse 9" cx="137.634" cy="15.3961" rx="15.3961" ry="15.3961" fill="#FFFCFC"/>
<path id="Union" d="M122.239 37.0645C109.957 37.0645 100 47.0211 100 59.3032V111.764C100 115.543 103.064 118.607 106.843 118.607C110.622 118.607 113.685 115.543 113.685 111.764V56.5728C113.685 55.4039 114.633 54.4563 115.802 54.4563C116.872 54.4563 117.774 55.2553 117.903 56.3178L121.013 81.9382C121.447 84.5443 121.447 87.2041 121.013 89.8102C118.793 103.13 117.677 111.137 117.677 124.64V195.587H117.683C117.849 199.706 121.612 203 126.23 203C130.848 203 134.611 199.706 134.778 195.587H134.784V110.053C134.784 108.479 136.06 107.202 137.635 107.202C139.209 107.202 140.486 108.479 140.486 110.053V195.587H140.492C140.664 199.706 144.553 203 149.324 203C154.096 203 157.985 199.706 158.157 195.587H158.163V124.64C158.163 111.137 157.047 103.13 154.827 89.8102C154.393 87.2041 154.393 84.5443 154.827 81.9382L157.937 56.3178C158.066 55.2553 158.968 54.4563 160.038 54.4563C161.207 54.4563 162.154 55.4039 162.154 56.5728V111.764C162.154 115.543 165.218 118.607 168.997 118.607C172.776 118.607 175.84 115.543 175.84 111.764V59.3032C175.84 47.0211 165.883 37.0645 153.601 37.0645H122.239Z" fill="url(#paint0_linear_345_1083)"/>
</g>
<path id="Vector 15 (Stroke)" fill-rule="evenodd" clip-rule="evenodd" d="M29.4558 50C31.665 50 33.4558 51.7909 33.4558 54L33.4558 113.343L52.0833 94.7157C53.6454 93.1536 56.178 93.1536 57.7401 94.7157C59.3022 96.2778 59.3022 98.8105 57.7401 100.373L32.2843 125.828C30.7222 127.391 28.1895 127.391 26.6274 125.828L1.17157 100.373C-0.390527 98.8105 -0.390526 96.2778 1.17157 94.7157C2.73367 93.1536 5.26633 93.1536 6.82843 94.7157L25.4558 113.343L25.4558 54C25.4558 51.7909 27.2467 50 29.4558 50Z" fill="url(#paint1_linear_345_1083)"/>
</g>
<defs>
<linearGradient id="paint0_linear_345_1083" x1="137.065" y1="66.6625" x2="137.636" y2="203.001" gradientUnits="userSpaceOnUse">
<stop stop-color="#FFFCFC"/>
<stop offset="0.225" stop-color="#F7BBBA"/>
<stop offset="1" stop-color="#E10C08"/>
</linearGradient>
<linearGradient id="paint1_linear_345_1083" x1="29.4558" y1="50" x2="29.4558" y2="202.5" gradientUnits="userSpaceOnUse">
<stop stop-color="white"/>
<stop offset="0.585" stop-color="#EF7D7B"/>
<stop offset="1" stop-color="#E4201D"/>
</linearGradient>
</defs>
</svg>
