<svg width="147" height="147" viewBox="0 0 147 147" fill="none" xmlns="http://www.w3.org/2000/svg">
<g id="Group 43">
<rect id="Rectangle 16" width="147" height="147" rx="20" fill="#FFBA08"/>
<path id="Vector 16" d="M33.4144 85.1296C33.8979 82.0134 47.9855 73.0339 54.9689 68.9336C57.3862 68.9336 64.3964 69.7536 73.0988 73.0338C81.8012 76.314 89.4829 88.8881 92.236 94.7652C91.9003 82.7378 91.1885 58.3139 91.0273 56.8378C90.8259 54.9927 90.2216 53.9676 90.0201 52.9426C89.8187 51.9175 85.5884 51.5075 83.7754 50.6874C81.9624 49.8674 78.3364 46.1771 77.3291 44.742C76.3219 43.307 73.3003 41.0518 72.4945 40.0268C71.6887 39.0017 72.4945 36.7465 73.3003 35.3115C73.9449 34.1634 75.1804 33.8764 75.7176 33.8764C74.4418 32.9196 72.1722 30.3911 73.3003 27.931C74.7104 24.8558 81.9624 24.0358 83.5739 23.4208C85.1855 22.8057 88.8115 20.3456 92.4375 21.1656C96.0634 21.9857 104.121 33.2614 103.718 34.4914C103.315 35.7215 104.726 45.9722 105.733 50.8925C106.74 55.8128 114.798 75.699 115.805 81.2344C116.812 86.7697 116.611 100.916 117.014 102.146C117.417 103.376 119.23 112.601 116.611 115.472C113.992 118.342 98.2794 116.907 96.6679 116.907C95.0563 116.907 71.8902 119.367 60.005 116.907C48.1198 114.446 33.4144 107.681 30.7956 101.736C28.1769 95.7903 32.8101 89.0248 33.4144 85.1296Z" fill="#171718"/>
</g>
</svg>
