<svg width="130" height="133" viewBox="0 0 130 133" fill="none" xmlns="http://www.w3.org/2000/svg">
<g id="Group 54">
<path id="Union" fill-rule="evenodd" clip-rule="evenodd" d="M80.0201 15.2502C80.0201 23.6727 73.1925 30.5005 64.7698 30.5005C56.3471 30.5005 49.5196 23.6727 49.5196 15.2502C49.5196 6.82776 56.3471 0 64.7698 0C73.1925 0 80.0201 6.82776 80.0201 15.2502ZM43.6074 61.1201L38.1998 73.9443C37.2308 76.2421 35.5264 78.1532 33.354 79.3778L14 90.5001C10.9047 92.2449 4.74479 92.0954 3 89.0001L0.5 84.5001L26.5569 68.4384L36.7401 44.2889C36.9868 43.3982 37.3458 42.5541 37.801 41.773L37.9314 41.4639C38.6504 39.7588 40.0183 38.5254 41.6267 37.9299C43.2153 36.9943 45.067 36.4576 47.044 36.4576H54.55H74.4519H81.9578C83.9348 36.4576 85.7865 36.9943 87.3751 37.9299C88.9835 38.5254 90.3515 39.7588 91.0705 41.4639L91.2008 41.7731C91.656 42.5541 92.0151 43.3982 92.2617 44.2889L102.445 68.4384L129.5 83.5001L126.5 89.0001C124.755 92.0954 119.595 92.7449 116.5 91.0001L95.6478 79.3778C93.4754 78.1532 91.771 76.2421 90.8021 73.9443L85.3944 61.1201H85.1423V102.971C85.1423 108.876 80.356 113.662 74.4518 113.662H54.55C48.6458 113.662 43.8595 108.876 43.8595 102.971V61.1201H43.6074Z" fill="#E00501"/>
<path id="Vector 18 (Stroke)" fill-rule="evenodd" clip-rule="evenodd" d="M112.397 93.8943C114.209 98.6051 111.797 103.869 107.011 105.652L40.5503 130.407C35.7635 132.19 30.4143 129.817 28.6025 125.106C26.7908 120.395 29.2026 115.131 33.9894 113.348L100.45 88.593C105.236 86.81 110.586 89.1835 112.397 93.8943Z" fill="#E00501"/>
<path id="Vector 18 (Stroke) (Stroke)" fill-rule="evenodd" clip-rule="evenodd" d="M99.9994 86.7131C105.72 84.569 112.114 87.4228 114.28 93.0898C116.446 98.7575 113.562 105.09 107.841 107.234L41.0006 132.287C35.2801 134.431 28.8863 131.577 26.7204 125.91C24.5542 120.243 27.4382 113.91 33.1593 111.766L99.9994 86.7131ZM110.994 94.3229C109.516 90.455 105.15 88.5047 101.242 89.9694L34.4021 115.022C30.4948 116.487 28.5276 120.81 30.0057 124.677C31.484 128.545 35.8498 130.495 39.7577 129.031L106.598 103.978C110.505 102.513 112.472 98.1903 110.994 94.3229Z" fill="#171718"/>
<path id="Vector 19 (Stroke)" fill-rule="evenodd" clip-rule="evenodd" d="M16.6096 93.8943C14.7766 98.6051 17.2167 103.869 22.0599 105.652L89.302 130.407C94.1452 132.19 99.5573 129.817 101.39 125.106C103.223 120.395 100.783 115.131 95.9401 113.348L28.698 88.593C23.8548 86.81 18.4427 89.1835 16.6096 93.8943Z" fill="#E00501"/>
<path id="Vector 19 (Stroke) (Stroke)" fill-rule="evenodd" clip-rule="evenodd" d="M28.9849 86.7115C23.279 84.5733 16.8895 87.4147 14.7215 93.086L16.352 93.7062L14.7215 93.086C12.551 98.7637 15.4453 105.095 21.1574 107.235L88.0151 132.289C93.721 134.427 100.11 131.585 102.279 125.914C104.449 120.236 101.555 113.905 95.8426 111.765L28.9849 86.7115ZM17.9825 94.3264C19.4597 90.4625 23.8326 88.4998 27.7576 89.9706L94.6152 115.024C98.5341 116.492 100.492 120.816 99.0175 124.674C97.5403 128.537 93.1675 130.5 89.2424 129.029L22.3848 103.976C18.4659 102.508 16.5079 98.1839 17.9825 94.3264Z" fill="#171718"/>
</g>
</svg>
