<svg width="147" height="147" viewBox="0 0 147 147" fill="none" xmlns="http://www.w3.org/2000/svg">
<g id="Group 43">
<rect id="Rectangle 16" width="147" height="147" rx="20" fill="#F48C06"/>
<g id="&#240;&#159;&#166;&#134; icon &#34;yoga&#34;">
<path id="Vector" d="M84.793 84.5396L88.2593 92.0004C88.2593 92.0004 103.857 95.3131 103.857 103.192C103.857 108.788 96.9245 108.788 96.9245 108.788H78.4385L69.3398 103.733" stroke="black" stroke-width="8" stroke-linecap="round" stroke-linejoin="round"/>
<path id="Vector_2" d="M63.9993 84.5396L60.5332 92.0004C60.5332 92.0004 44.9355 95.3131 44.9355 103.192C44.9355 108.788 51.8678 108.788 51.8678 108.788H60.2443L69.3431 103.733L80.4637 96.6565" stroke="black" stroke-width="8" stroke-linecap="round" stroke-linejoin="round"/>
<path id="Vector_3" d="M38 88.2712C38 88.2712 46.6654 86.4062 51.8646 84.5408C57.0638 58.4271 72.6613 60.2923 74.3945 60.2923C76.1277 60.2923 91.7252 58.4271 96.9244 84.5408C102.124 86.4062 110.789 88.2712 110.789 88.2712" stroke="black" stroke-width="8" stroke-linecap="round" stroke-linejoin="round"/>
<path id="Vector_4" d="M74.3943 52.1753C78.8611 52.1753 82.482 48.5544 82.482 44.0877C82.482 39.621 78.8611 36 74.3943 36C69.9275 36 66.3066 39.621 66.3066 44.0877C66.3066 48.5544 69.9275 52.1753 74.3943 52.1753Z" fill="black" stroke="black" stroke-width="5" stroke-linecap="round" stroke-linejoin="round"/>
</g>
</g>
</svg>
