<svg width="147" height="147" viewBox="0 0 147 147" fill="none" xmlns="http://www.w3.org/2000/svg">
<g id="Group 43">
<rect id="Rectangle 16" width="147" height="147" rx="20" fill="#6A040F"/>
<path id="Vector" fill-rule="evenodd" clip-rule="evenodd" d="M87.2469 72.4407C86.2738 66.3901 81.7237 61.002 73.6055 61.002C65.4873 61.002 60.8495 66.2157 59.7011 72.1268L43.7452 71.9525L43 37.7411L56.8956 37.5754V52.7107L90.7449 52.2574V37.1744L105 37L104.211 72.6238L87.2469 72.4407ZM62.1646 37.5667L85.5198 37.2528L86.0634 47.4448L61.8227 48.3166L62.1646 37.5667ZM73.5617 65.867C75.5634 65.767 77.537 66.3684 79.1389 67.5664C80.7408 68.7643 81.8696 70.483 82.3286 72.4233L64.707 72.2315C65.2412 70.3326 66.4026 68.6679 68.0041 67.5054C69.6056 66.3429 71.554 65.7504 73.5354 65.8234L73.5617 65.867ZM73.7721 84.1758C68.5119 84.1758 65.4347 81.1069 64.5404 77.4887L82.3461 77.3579C81.9537 79.3168 80.8727 81.0726 79.2967 82.3108C77.7207 83.549 75.7528 84.1885 73.7458 84.1148L73.7721 84.1758ZM73.9562 88.9884C81.8903 88.9274 86.3877 83.4609 87.2907 77.3579L104.106 77.3056L103.378 109.956H90.7449V96.0068L56.8956 95.5534V109.965H44.5781L43.8679 77.5061L59.5871 77.4538C60.5252 83.5045 65.233 88.9274 73.9299 88.9274L73.9562 88.9884ZM85.6075 110H62.1383L61.8227 100.253L86.0634 101.125L85.6075 110Z" fill="white"/>
</g>
</svg>
