<svg width="147" height="147" viewBox="0 0 147 147" fill="none" xmlns="http://www.w3.org/2000/svg">
<g id="Group 52">
<rect id="Rectangle 16" width="147" height="147" rx="20" fill="#03071E"/>
<path id="Vector" fill-rule="evenodd" clip-rule="evenodd" d="M89.9237 104.685C85.2289 103.695 80.0671 99.3606 80.4006 90.1549C80.5174 87.1451 80.8009 82.341 81.1428 77.1764L85.7209 79.5239C85.4457 83.8585 85.2205 87.7655 85.1288 90.3226C84.8369 98.145 89.465 99.7295 90.891 100.031L111.188 104.341C111.897 95.1602 110.112 75.4409 102.382 64.3656C98.8046 59.2429 94.5601 56.8031 89.3566 56.8031C88.6627 56.8043 87.9693 56.8463 87.2802 56.9289C87.0718 59.7292 86.7632 63.8961 86.4464 68.4235L92.8089 72.7329L100.698 70.6033L101.765 74.0492L96.9284 76.8494L105.267 94.1206L102.482 95.5291L97.412 87.1451L93.5845 92.7791L91.2162 91.3455L94.7436 82.7267L91.8583 77.9058L73.8629 67.9623L56.7015 74.8037L47.9206 71.8945L46.6447 74.5774L52.2902 78.3418L39.6567 94.9925L42.1084 97.2982L51.2812 87.3882L55.1671 94.8584L57.6688 93.3912L54.9419 83.4309L57.3769 80.7983L65.5991 77.3022C65.8492 82.735 66.041 87.7822 66.041 90.7837C66.041 100.006 60.8125 102.689 56.1761 103.896C46.7615 106.353 32.1184 109.765 32.1184 109.765C28.6994 98.6144 31.4679 43.8833 64.2398 53.0806C64.2398 53.0806 64.5901 58.547 64.9737 65.4639L69.977 62.5211L69.4517 37H78.0241L77.4403 62.1941L81.96 65.2794C82.452 58.3794 82.869 52.9213 82.869 52.9213C84.9825 52.333 87.1636 52.0257 89.3566 52.0075C115.566 52.0075 118.093 101.18 114.924 110L89.9237 104.685Z" fill="white"/>
</g>
</svg>
