<svg width="153" height="136" viewBox="0 0 153 136" fill="none" xmlns="http://www.w3.org/2000/svg">
<g id="Group 57">
<circle id="Ellipse 12" cx="140" cy="117" r="13" fill="white"/>
<g id="Union">
<path d="M106.795 11.9265C106.795 18.5132 101.454 23.8529 94.8651 23.8529C88.2762 23.8529 82.9348 18.5132 82.9348 11.9265C82.9348 5.33965 88.2762 0 94.8651 0C101.454 0 106.795 5.33965 106.795 11.9265Z" fill="#E00501"/>
<path d="M31.75 93.2956L41.5636 75.5983L50.9924 93.2956L41.5636 109.646H0V102.144C0 97.2573 3.96296 93.2956 8.85151 93.2956H31.75Z" fill="#E00501"/>
<path d="M46.7591 22.5064H73.6985L96.2121 35.7794L105.448 51.3607H127V57.6293C127 59.756 126.074 61.7772 124.462 63.1658L123.477 64.0146C122.15 65.1585 120.456 65.7878 118.703 65.7878H96.2121L86.9758 51.3607L73.6985 74.8289L108.912 136H98.2927C93.0748 136 88.2522 133.221 85.6373 128.707L48.2985 64.2489L64.2697 36.9335H55.6106L42.9106 58.0934L37.4183 54.6515C33.3154 52.0804 32.0408 46.6906 34.5577 42.555L46.7591 22.5064Z" fill="#E00501"/>
</g>
</g>
</svg>
