<svg width="137" height="166" viewBox="0 0 137 166" fill="none" xmlns="http://www.w3.org/2000/svg">
<g id="Group 20">
<g id="Group 38">
<g id="Group 37">
<ellipse id="Ellipse 9" cx="104.877" cy="12.5899" rx="12.5899" ry="12.5899" fill="#E00501"/>
<path id="Union" d="M92.287 30.3086C82.2435 30.3086 74.1016 38.4505 74.1016 48.494V91.3929C74.1016 94.4833 76.6067 96.9884 79.6971 96.9884C82.7874 96.9884 85.2926 94.4833 85.2926 91.3929V46.2612C85.2926 45.3054 86.0674 44.5305 87.0233 44.5305C87.8985 44.5305 88.6359 45.1839 88.7414 46.0527L91.2843 67.0034C91.6394 69.1345 91.6394 71.3096 91.2843 73.4407C89.469 84.3325 88.5566 90.8804 88.5566 101.923V159.938H88.5613C88.6976 163.307 91.7749 166 95.551 166C99.3272 166 102.404 163.307 102.541 159.938H102.545V89.9941C102.545 88.7064 103.589 87.6626 104.877 87.6626C106.165 87.6626 107.208 88.7064 107.208 89.9941V159.938H107.213C107.354 163.307 110.534 166 114.436 166C118.338 166 121.518 163.307 121.659 159.938H121.663V101.923C121.663 90.8804 120.751 84.3325 118.936 73.4407C118.581 71.3096 118.581 69.1345 118.936 67.0034L121.479 46.0527C121.584 45.1839 122.322 44.5305 123.197 44.5305C124.153 44.5305 124.927 45.3054 124.927 46.2612V91.3929C124.927 94.4833 127.433 96.9884 130.523 96.9884C133.613 96.9884 136.118 94.4833 136.118 91.3929V48.494C136.118 38.4505 127.977 30.3086 117.933 30.3086H92.287Z" fill="#E00501"/>
</g>
<path id="Vector 15 (Stroke)" fill-rule="evenodd" clip-rule="evenodd" d="M24.3234 40.8867C26.1299 40.8867 27.5943 42.3512 27.5943 44.1577L27.5943 92.6846L42.8266 77.4523C44.104 76.175 46.1751 76.175 47.4524 77.4523C48.7298 78.7297 48.7298 80.8008 47.4524 82.0781L26.6363 102.894C25.3589 104.172 23.2879 104.172 22.0105 102.894L1.19436 82.0781C-0.0830191 80.8008 -0.083019 78.7297 1.19436 77.4523C2.47174 76.175 4.54279 76.175 5.82017 77.4523L21.0525 92.6846L21.0525 44.1577C21.0525 42.3512 22.5169 40.8867 24.3234 40.8867Z" fill="white"/>
</g>
</g>
</svg>
