<svg width="140" height="196" viewBox="0 0 140 196" fill="none" xmlns="http://www.w3.org/2000/svg">
<g id="Union">
<path d="M113.59 2.84761C114.009 2.20891 115.002 1.28029 115.791 0.783916C116.932 0.07054 117.82 -0.0858406 120.042 0.0389124C120.595 0.07054 121.056 0.10656 121.451 0.157516C121.898 0.216378 122.261 0.294568 122.585 0.407022C123.197 0.621386 123.659 0.959625 124.254 1.52541C126.138 3.31412 126.927 4.93503 126.927 7.02947C126.927 7.52058 126.747 8.41757 126.42 9.6159C125.758 12.0319 124.501 15.6735 122.923 19.6884L122.194 21.521C121.327 23.6559 118.661 30.7528 116.193 37.4341C114.759 41.3181 113.393 45.0625 112.488 47.6102C111.907 49.239 111.188 51.2395 110.572 52.9316L109.631 55.482C108.48 58.5753 108.473 58.6509 109.293 59.7692C110.075 60.834 110.794 62.1413 111.329 63.4134C111.583 64.0135 111.794 64.6047 111.952 65.16C112.062 65.5465 112.143 65.9146 112.195 66.2555C112.621 68.9966 111.456 72.1795 106.539 81.681C105.152 84.3632 104.148 86.382 103.5 87.8088C102.686 89.5922 102.426 90.4497 102.658 90.5182C102.989 90.6149 104.983 91.0533 107.092 91.4934C117.943 93.7565 127.92 98.9364 136.056 106.532C138.225 108.558 140 110.408 140 110.644C140 110.998 138.091 111.977 135.499 113.032C134.059 113.619 132.407 114.229 130.759 114.77C123.779 117.052 113.062 118.681 105.014 118.681H101.232V144.115C101.232 174.861 100.757 181.008 97.7419 189.215C96.8579 191.622 94.2201 193.942 90.9941 195.146C90.4905 195.333 90.0432 195.489 89.6452 195.616C89.1205 195.782 88.6768 195.893 88.3034 195.952C87.2539 196.116 86.7327 195.858 86.37 195.179C86.0601 194.598 85.9051 181.363 85.9051 155.407V116.506L82.8623 115.514C79.0517 114.272 76.1004 113.111 72.5011 111.439C71.5819 111.011 70.7684 110.675 70.2155 110.447C69.8386 110.292 69.5815 110.187 69.49 110.134L67.7572 109.137L0.663361 130.128C-1.71738 122.543 2.51231 114.466 10.1124 112.087L52.536 98.8161L39.8329 88.1971C36.8112 85.0352 35.973 83.6348 36.8006 83.1244C37.8466 82.4804 45.834 82.0245 55.9275 82.0333C67.0071 82.042 73.6598 82.9188 81.2422 85.3691C81.9642 85.6019 82.658 85.811 83.2708 85.9832C84.521 86.3346 85.4296 86.5314 85.5494 86.4585C86.0847 86.1299 85.3979 83.5277 84.0843 80.8964C82.5453 77.8189 78.5657 74.0051 75.3679 72.5433C71.5502 70.8002 54.4483 67.6981 32.261 64.7251C23.9249 63.6085 22.3048 63.1578 20.7306 61.5184C18.4203 59.1139 18.6774 53.9963 21.2342 51.4459C23.6361 49.0484 25.2103 48.8252 32.2821 49.8769L48.9402 52.3324C66.4788 54.9012 80.0413 56.9746 84.1407 57.7099C90.0538 58.7739 91.6139 58.6632 93.1001 57.0756C93.8186 56.3069 94.9632 53.977 95.8049 51.5654C96.6078 49.2663 98.1856 44.8551 99.3126 41.7626L101.137 36.6812C102.088 34.0157 103.13 31.0699 103.954 28.718C106.927 20.2217 109.473 13.1749 111.22 8.57483C112.445 5.34443 113.28 3.32027 113.59 2.84761Z" fill="url(#paint0_linear_360_116)"/>
<path d="M79.6574 50.3794C86.6271 50.3794 92.2796 44.7409 92.2796 37.7846C92.2796 30.8283 86.6271 25.1898 79.6574 25.1898C72.6878 25.1898 67.0353 30.8283 67.0353 37.7846C67.0353 44.7409 72.6878 50.3794 79.6574 50.3794Z" fill="url(#paint1_linear_360_116)"/>
</g>
<defs>
<linearGradient id="paint0_linear_360_116" x1="70" y1="0" x2="70" y2="196" gradientUnits="userSpaceOnUse">
<stop stop-color="white"/>
<stop offset="1" stop-color="#E00501"/>
</linearGradient>
<linearGradient id="paint1_linear_360_116" x1="70" y1="0" x2="70" y2="196" gradientUnits="userSpaceOnUse">
<stop stop-color="white"/>
<stop offset="1" stop-color="#E00501"/>
</linearGradient>
</defs>
</svg>
